HIERARCHY
ROOT Hips
{
  OFFSET 90.7885 88.945 -76.2838
  CHANNELS 6 Xposition Yposition Zposition Zrotation Xrotation Yrotation
  JOINT LeftUpLeg
  {
    OFFSET 8.64259 1.95398 -2.38835
    CHANNELS 3 Zrotation Xrotation Yrotation
    JOINT LeftLeg
    {
      OFFSET 43.7702 0 0
      CHANNELS 3 Zrotation Xrotation Yrotation
      JOINT LeftFoot
      {
        OFFSET 40.6238 0 0
        CHANNELS 3 Zrotation Xrotation Yrotation
        JOINT LeftToeBase
        {
          OFFSET 12.7242 0 0
          CHANNELS 3 Zrotation Xrotation Yrotation
          End Site
          {
            OFFSET 0 0 0
          }
        }
      }
    }
  }
  JOINT RightUpLeg
  {
    OFFSET -8.2249 1.95398 -2.59336
    CHANNELS 3 Zrotation Xrotation Yrotation
    JOINT RightLeg
    {
      OFFSET 43.5653 0 0
      CHANNELS 3 Zrotation Xrotation Yrotation
      JOINT RightFoot
      {
        OFFSET 40.6238 0 0
        CHANNELS 3 Zrotation Xrotation Yrotation
        JOINT RightToeBase
        {
          OFFSET 12.7242 0 0
          CHANNELS 3 Zrotation Xrotation Yrotation
          End Site
          {
            OFFSET 0 0 0
          }
        }
      }
    }
  }
  JOINT Spine
  {
    OFFSET 0.165834 0.87714 6.61349
    CHANNELS 3 Zrotation Xrotation Yrotation
    JOINT Spine1
    {
      OFFSET 7.38963 1.71661e-005 0
      CHANNELS 3 Zrotation Xrotation Yrotation
      JOINT Spine2
      {
        OFFSET 11.9445 1.14441e-005 0
        CHANNELS 3 Zrotation Xrotation Yrotation
        JOINT Spine3
        {
          OFFSET 14.7254 4.19617e-005 0
          CHANNELS 3 Zrotation Xrotation Yrotation
          JOINT Spine4
          {
            OFFSET 10.9679 0 0
            CHANNELS 3 Zrotation Xrotation Yrotation
            JOINT RightShoulder
            {
              OFFSET 2.46616 -1.6653 3.69651
              CHANNELS 3 Zrotation Xrotation Yrotation
              JOINT RightArm
              {
                OFFSET 13.0012 0 0
                CHANNELS 3 Zrotation Xrotation Yrotation
                JOINT RightForeArm
                {
                  OFFSET 28.7848 1.52588e-005 0
                  CHANNELS 3 Zrotation Xrotation Yrotation
                  JOINT RightHand
                  {
                    OFFSET 26.5688 1.52588e-005 0
                    CHANNELS 3 Zrotation Xrotation Yrotation
                    End Site
                    {
                      OFFSET 0 0 0
                    }
                  }
                }
              }
            }
            JOINT LeftShoulder
            {
              OFFSET 2.38034 -1.29275 -3.7523
              CHANNELS 3 Zrotation Xrotation Yrotation
              JOINT LeftArm
              {
                OFFSET 16.3182 6.10352e-005 0
                CHANNELS 3 Zrotation Xrotation Yrotation
                JOINT LeftForeArm
                {
                  OFFSET 27.0901 0 0
                  CHANNELS 3 Zrotation Xrotation Yrotation
                  JOINT LeftHand
                  {
                    OFFSET 24.5451 1.52588e-005 0
                    CHANNELS 3 Zrotation Xrotation Yrotation
                    End Site
                    {
                      OFFSET 0 0 0
                    }
                  }
                }
              }
            }
            JOINT Neck
            {
              OFFSET 5.0226 -0.0266342 0
              CHANNELS 3 Zrotation Xrotation Yrotation
              JOINT Head
              {
                OFFSET 6.69363 2.86102e-005 0
                CHANNELS 3 Zrotation Xrotation Yrotation
                End Site
                {
                  OFFSET 0 0 0
                }
              }
            }
          }
        }
      }
    }
  }
}
MOTION
Frames:	15
Frame Time:	0.0416667
12.7057 94.7795 -2.80813 -98.6416 -41.0769 -102.815 179.208 17.5022 84.6013 -7.28447 22.0955 -0.795066 60.365 0.652056 -6.51138 23.0438 -6.31897 9.39871 169.153 -14.5946 83.5126 -27.9857 -49.4087 -5.6576 79.7393 -13.1714 -5.33091 16.5042 -3.89345 9.30867 1.92672 8.26875 -89.6866 10.3357 3.98182 0.276995 -1.32918 3.99015 0.101188 -23.9082 3.71426 1.46253 -3.89559 3.71423 1.46252 87.0719 -28.4104 -113.265 30.2894 -11.2484 -11.4466 -5.15079 -25.6649 -28.6576 -26.9429 -0.0201876 -11.5857 -86.715 -60.2403 85.1398 -25.4676 10.0684 12.9081 4.39926 -6.09402 -11.0484 -2.69994 -0.0785796 -4.51375 0.0724541 -3.25419 1.03879 -1.60481 -3.3844 -7.20713 
5.0489 94.6061 4.33601 -99.3748 -34.4461 -104.932 179.675 17.1837 82.2722 -21.3208 21.1134 -0.51079 60.3339 0.812995 -5.8244 21.8276 -4.02626 6.39811 170.021 -16.5281 81.0792 -41.144 -49.8332 -14.2593 70.1597 -6.25584 -3.64787 27.1537 -5.9594 13.9675 2.17327 8.26853 -89.5354 10.3318 4.54228 0.529006 -1.33126 4.56116 0.328153 -23.9216 4.17295 1.87197 -3.9089 4.17296 1.87197 88.4047 -27.5875 -110.974 37.2616 -12.481 -8.62029 3.4389 -25.6333 -14.8534 -25.6665 -0.846656 -7.17543 -87.3702 -63.274 84.6779 -21.3245 9.22562 9.38856 4.38001 -8.33328 -12.063 -1.14334 -0.0785162 -4.8598 0.961315 -4.07365 1.19992 -2.96849 -4.12669 -8.40828 
-1.99308 94.6513 9.75058 -99.7153 -27.983 -106.178 -178.755 13.8769 81.1051 -29.9587 16.9738 -1.94589 70.6715 4.68593 -3.68166 13.944 -0.741198 3.07167 171.614 -9.49931 77.2021 -55.2707 -45.5939 -12.7534 54.0403 2.16851 2.5523 34.7048 -1.69362 3.27668 1.72968 8.24424 -89.1538 10.3635 3.83317 1.34716 -1.30231 3.88875 1.17693 -23.8666 3.25107 2.43773 -3.85396 3.25106 2.43772 87.0691 -29.5733 -112.714 39.7103 -14.5938 -6.09164 8.94304 -24.9018 -6.7845 -21.3574 -0.9901 -6.27062 -87.4311 -60.3421 84.1925 -19.5771 11.8563 3.50638 3.55763 -8.46409 -9.86566 -1.82874 -0.0807293 -5.08939 1.46407 -3.72597 -2.03656 -2.86637 -3.31521 -6.53467 
-8.12839 95.2815 13.0471 -98.7272 -20.0567 -103.666 -178.009 8.6725 82.7276 -31.5663 10.3902 -2.74769 76.7521 6.86377 -2.58274 12.9744 0.788329 1.47335 177.18 2.23172 78.9732 -64.9784 -29.6252 -8.92501 62.6256 -1.81331 0.819571 27.6373 -1.38479 3.4038 1.32093 8.23113 -89.2136 10.3937 2.99159 1.29938 -1.27429 3.04589 1.16635 -23.8244 2.46279 2.13867 -3.81178 2.4628 2.13867 87.4017 -29.9969 -111.868 40.114 -15.5966 -2.18895 7.26073 -26.0694 -10.1439 -22.4204 -0.738107 -8.11036 -87.9337 -58.2578 83.1983 -13.9892 15.1504 -7.23313 2.25911 -9.33504 -3.62808 -1.71798 -0.085803 -4.66434 2.07183 -2.71799 -3.80658 -2.90373 -2.04241 -5.12907 
-14.217 96.517 14.9723 -97.607 -12.8906 -98.4357 -177.12 2.00123 85.9753 -28.9627 4.96802 -2.37976 78.3289 6.39248 -5.10074 17.3058 -4.94931 7.83489 179.78 12.9183 84.8561 -60.5514 -17.0328 -6.23016 71.0949 -6.44812 -2.75308 24.2669 -0.785763 2.67106 0.780413 8.17403 -89.605 10.524 1.73599 0.631433 -1.14591 1.7621 0.554393 -23.6869 1.46597 1.12404 -3.6743 1.46597 1.12404 88.3053 -29.5963 -110.272 38.9739 -15.3148 -0.127321 3.11348 -25.6736 -17.1971 -23.2948 -0.463589 -9.55899 -87.9869 -55.6853 82.7197 -9.37481 11.3161 -12.9684 3.53982 -9.2059 -5.32726 -1.48038 -0.0948814 -5.02761 -0.0722597 -1.05395 -4.72261 -1.86821 -0.385356 -3.56628 
-20.4191 96.8448 16.3089 -96.1631 -7.194 -93.8773 -176.128 -2.96656 89.4364 -25.3747 -0.0985717 -1.87245 80.6278 6.22328 -5.94061 18.9055 -6.76251 9.97157 179.237 20.6247 91.0752 -43.9928 -15.77 -3.8574 67.3695 -4.55714 -1.28395 24.6824 -1.0975 3.25152 0.294424 8.11387 -89.8761 10.6457 0.643408 0.187937 -1.02511 0.651085 0.15943 -23.5612 0.557205 0.372624 -3.54853 0.557195 0.37263 88.109 -31.4273 -109.876 36.6905 -12.7712 0.834075 -0.477998 -27.0583 -21.2835 -24.8424 -0.589756 -9.16444 -87.4834 -51.5748 82.7674 -6.2799 4.84141 -15.9001 5.74672 -8.25063 -10.6617 1.03338 -0.164162 -6.84642 0.0192605 0.350013 -7.20042 -1.70681 1.35052 -0.459825 
-27.1349 96.2623 17.3029 -94.9315 -5.24459 -91.41 -175.421 -8.56814 91.32 -21.2382 -3.01142 -1.46999 83.9804 6.75317 -7.3926 16.9111 -7.7566 11.1683 177.831 22.072 94.4274 -20.4658 -17.0604 -1.53362 62.9911 -2.50813 -1.49819 21.9536 -1.71676 4.86772 -0.0892722 8.06439 -90.039 10.7456 -0.195656 -0.0591372 -0.925354 -0.198071 -0.0504769 -23.4606 -0.168867 -0.115209 -3.4479 -0.168823 -0.115204 88.6618 -32.699 -108.309 37.3288 -9.39603 1.6995 0.747123 -20.9143 -19.1745 -27.7612 -0.208928 -8.88341 -87.4689 -48.2667 82.2197 -4.41746 0.262164 -21.5367 6.61311 -9.42477 -13.1817 3.28489 -0.213968 -6.87727 0.689357 0.00550392 -8.37219 -1.81284 1.22349 0.478875 
-35.3872 95.0794 18.3272 -94.8846 -7.55091 -89.8289 -174.019 -14.6153 93.7451 -18.8737 -0.66695 -0.493693 85.0676 8.24375 -4.31084 21.7043 -2.99365 4.9615 177.341 20.8449 94.9135 -9.3094 -16.0711 -1.37015 63.5096 -2.68105 -1.93081 18.4741 -1.76998 5.3477 -0.489709 8.07297 -90.2568 10.7251 -1.09354 -0.410887 -0.945484 -1.11053 -0.362369 -23.4828 -0.919486 -0.720563 -3.47016 -0.919476 -0.720559 88.5442 -34.0105 -108.029 37.9111 -8.53268 3.856 3.11317 -22.046 -14.7675 -24.6163 -0.223729 -9.75097 -88.2676 -48.8486 81.1048 -4.69129 -2.21407 -29.3915 7.48073 -8.29102 -14.4347 4.19451 -0.263802 -7.36359 1.96439 -1.1298 -8.66802 -2.868 0.246487 0.0824699 
-45.6736 94.3904 18.9638 -95.8024 -9.78251 -87.1329 -169.452 -19.592 100.398 -19.7256 4.36184 0.0182831 79.759 7.76163 -2.6114 40.0015 -3.63664 4.41912 176.221 21.9681 96.6556 -20.1457 -13.7596 0.0429796 59.5489 -0.121503 -1.30024 24.2325 -0.689366 2.43294 -0.62758 8.07073 -90.5863 10.7265 -1.52 -1.02558 -0.943837 -1.56363 -0.957698 -23.4804 -1.14154 -1.43498 -3.46774 -1.14153 -1.43497 88.6594 -34.4073 -107.665 39.7097 -8.22307 5.73376 6.90408 -24.1794 -8.31365 -18.2947 -0.648646 -8.61321 -88.9373 -50.3253 80.382 -8.31427 0.196807 -32.9456 9.99102 0.838049 -18.6217 0.989914 -0.214404 -9.19385 2.08078 -2.09349 -9.4428 -3.64312 -0.584541 0.378527 
-55.8646 94.2983 19.5315 -97.1466 -9.19711 -85.6852 -166.893 -16.5299 104.153 -34.0035 8.8967 1.56762 67.8912 4.48907 1.06622 41.0443 0.424497 -3.42977 175.4 20.3309 98.4651 -31.2425 -13.5617 1.02476 63.748 -1.74072 -1.55172 17.2536 -0.592594 3.30672 -0.600661 8.00215 -90.7008 10.86 -1.51961 -1.25157 -0.810599 -1.57322 -1.18347 -23.345 -1.07328 -1.65036 -3.33231 -1.0733 -1.65036 89.203 -33.5962 -106.951 41.7039 -6.90595 6.85122 7.37955 -22.6122 -6.73387 -17.4185 -0.482987 -9.68771 -89.1445 -52.1187 80.4241 -10.8591 6.43491 -29.1551 13.0196 12.3857 -21.539 -3.71021 -0.0148917 -10.8406 0.547643 -2.11986 -8.01249 -3.55241 -0.924166 -1.10274 
-63.8154 94.8688 19.9557 -98.915 -9.29999 -83.9604 -168.244 -1.285 106.061 -60.1265 14.3182 4.90907 56.712 -0.231142 1.28941 10.1678 4.74982 -2.30688 176.238 14.0787 100.987 -33.5019 -13.2105 1.05402 69.122 -4.5216 -4.44888 18.1832 -0.858931 3.67509 -0.451746 8.27919 -90.9049 10.3022 -1.31383 -1.68331 -1.36911 -1.38661 -1.62388 -23.8977 -0.74731 -2.00024 -3.88507 -0.747316 -2.00025 88.9062 -33.2633 -107.633 40.0797 -7.40439 4.41802 5.40071 -22.2646 -10.3728 -20.3942 -0.407268 -9.37202 -89.1469 -53.4379 80.6712 -14.4852 11.0765 -25.6262 10.1009 14.8934 -15.2704 -3.14421 -0.0605509 -8.59179 1.62992 -2.26999 -6.57669 -3.01295 -1.22192 -0.670535 
-70.3023 95.8568 21.0973 -98.3293 -8.54812 -85.9807 -171.927 13.0155 100.124 -68.8769 12.4614 4.798 66.5828 3.88005 2.05611 11.4987 3.29267 -0.974426 176.123 9.59561 99.1334 -33.0574 -14.2017 -0.39922 73.1709 -6.10216 -4.06874 18.7242 -0.924004 3.72174 -0.0943395 8.27441 -90.6838 10.323 -0.500759 -1.31502 -1.34859 -0.558155 -1.29172 -23.878 -0.0824769 -1.40471 -3.86532 -0.0824698 -1.40471 88.6113 -32.4657 -108.496 37.094 -7.89472 0.0267172 3.30647 -23.5119 -14.4986 -23.9656 -0.633929 -7.87511 -89.1657 -54.0218 80.7541 -17.4093 16.5412 -20.379 4.05575 9.10605 -5.98384 -2.66261 -0.0806554 -7.61458 -0.645384 -2.78096 -5.84802 -1.80264 -1.97253 -1.20092 
-77.163 96.7975 22.7335 -97.6369 -3.88313 -88.2214 -173.375 20.3688 94.2957 -54.7581 0.436183 0.694001 71.863 6.20334 -0.983786 9.67638 2.12318 0.565808 175.801 4.48297 95.4123 -31.3687 -19.5374 -2.66799 75.9842 -7.69118 -4.4764 20.2886 -0.602549 2.89578 0.499239 8.30389 -90.2824 10.2694 0.865656 -0.634887 -1.40148 0.836891 -0.672383 -23.9386 1.01646 -0.345351 -3.92595 1.01644 -0.345362 87.9302 -31.807 -110.059 33.1715 -9.29684 -6.2796 1.22171 -23.052 -17.0657 -24.5732 -0.528361 -8.25755 -88.573 -54.977 81.7698 -18.9902 19.8237 -9.05448 3.11286 7.15105 -8.53247 -4.77218 -0.0557399 -6.27602 -2.16797 -2.71145 -4.93539 -0.666021 -2.09367 -0.45503 
-84.7387 97.141 24.6728 -96.8755 -0.0297525 -90.0493 -176.14 19.7444 91.2686 -25.3378 -0.820846 -1.62424 64.1237 3.55259 0.611667 18.2049 1.28815 0.120856 174.28 -1.72546 91.7889 -28.2117 -25.2781 -3.72449 78.728 -9.75723 -4.49401 19.5376 -0.293378 2.4146 0.926603 8.28614 -90.1285 10.3057 1.78728 -0.409551 -1.36412 1.76754 -0.48785 -23.9091 1.82772 0.146714 -3.89651 1.82773 0.146722 87.8355 -30.0881 -110.981 28.8038 -11.1006 -13.1531 0.548866 -25.4393 -18.6859 -24.4129 -0.499332 -9.19089 -88.3482 -57.3654 82.4876 -21.2521 18.6869 3.37141 3.43738 3.91775 -11.2886 -3.10621 -0.0858881 -5.09362 -2.9055 -2.45772 -0.387613 -0.717775 -2.40576 -1.30912 
-93.592 96.1921 26.3699 -96.8993 1.89043 -90.7726 -179.941 18.4658 90.3047 -6.76607 -4.25472 -0.973931 64.1168 2.8914 -2.93647 20.2068 -2.34571 4.35382 171.171 -8.70014 87.2189 -24.9451 -29.7427 -3.51924 82.0782 -12.1971 -5.12513 21.024 -1.41126 4.37275 1.20915 8.26021 -90.1308 10.3598 2.3489 -0.464262 -1.3091 2.32623 -0.567252 -23.8613 2.37981 0.263561 -3.84866 2.37979 0.263556 87.6571 -29.3213 -111.675 25.8752 -10.7648 -17.2861 -0.256405 -26.1199 -20.3207 -24.5403 -0.703638 -8.22861 -88.4945 -58.5293 82.4751 -23.9993 15.9518 11.0193 3.23277 1.81804 -8.36253 -6.0079 -0.09432 -4.09254 -3.41881 -2.40826 3.22077 -0.335277 -2.77862 -2.42637 
